<?xml version="1.0" standalone="no"?>
<!DOCTYPE svg PUBLIC "-//W3C//DTD SVG 20010904//EN"
 "http://www.w3.org/TR/2001/REC-SVG-20010904/DTD/svg10.dtd">
<svg version="1.0" xmlns="http://www.w3.org/2000/svg"
 width="1024.000000pt" height="1024.000000pt" viewBox="0 0 1024.000000 1024.000000"
 preserveAspectRatio="xMidYMid meet">

<g transform="translate(0.000000,1024.000000) scale(0.100000,-0.100000)"
fill="#000000" stroke="none">
<path d="M6377 8420 c-726 -5 -749 -6 -763 -24 -19 -27 -18 -59 4 -85 l17 -21
777 -1 c428 0 782 3 788 6 20 12 30 54 20 79 -10 27 -31 41 -70 47 -14 2 -362
2 -773 -1z"/>
<path d="M3230 8400 c-25 -25 -26 -61 -2 -89 l17 -22 799 0 c751 0 800 1 818
18 24 22 19 78 -9 99 -15 11 -158 13 -810 14 -780 0 -793 0 -813 -20z"/>
<path d="M2856 8089 c-33 -26 -34 -68 -3 -97 l23 -22 1123 0 1122 0 26 26 c29
29 26 67 -9 97 -19 16 -88 17 -1138 17 -1115 0 -1117 0 -1144 -21z"/>
<path d="M5360 8090 c-24 -24 -26 -67 -4 -95 15 -20 28 -20 1108 -22 1091 -3
1094 -3 1120 18 35 28 35 70 0 98 -26 21 -30 21 -1115 21 -1076 0 -1089 0
-1109 -20z"/>
<path d="M2540 7792 c-41 -12 -53 -74 -22 -112 l18 -22 2609 1 c1436 0 2639 1
2675 1 74 1 97 13 106 58 5 24 1 36 -18 55 l-25 25 -2664 -1 c-1465 0 -2671
-2 -2679 -5z"/>
<path d="M2346 7458 c-21 -29 -20 -61 2 -87 l17 -22 2835 0 2835 0 18 22 c24
29 21 61 -6 87 l-23 22 -2832 0 -2831 0 -15 -22z"/>
<path d="M5420 7173 c-17 -6 -40 -32 -40 -45 0 -5 93 -107 208 -226 114 -120
315 -332 447 -472 131 -140 280 -298 330 -350 223 -232 252 -264 278 -313 26
-46 28 -60 24 -115 -8 -107 -70 -170 -178 -179 -46 -5 -67 -1 -110 19 -56 25
-46 15 -828 836 -96 100 -184 185 -197 188 -32 8 -74 -20 -74 -49 0 -31 23
-61 166 -213 67 -71 251 -268 410 -438 159 -170 349 -372 422 -450 72 -77 144
-158 159 -179 66 -94 27 -251 -74 -293 -45 -19 -130 -17 -178 5 -49 22 -159
136 -679 699 -263 286 -638 686 -701 750 -30 29 -62 52 -74 52 -27 0 -61 -34
-61 -60 0 -23 77 -111 346 -394 388 -410 425 -456 361 -456 -22 0 -199 171
-393 379 -71 76 -103 95 -138 81 -28 -10 -43 -49 -29 -74 11 -20 470 -502 502
-527 13 -11 39 -19 57 -19 35 0 58 -22 349 -330 240 -253 253 -273 239 -366
-17 -113 -113 -176 -234 -153 -52 10 -61 16 -165 122 -125 127 -608 651 -767
832 -234 266 -482 531 -510 543 -26 11 -31 10 -53 -12 -31 -31 -31 -45 -3 -82
40 -52 195 -223 359 -395 160 -169 180 -200 133 -207 -15 -2 -50 29 -134 120
-63 68 -159 169 -215 225 -87 88 -104 101 -125 96 -38 -9 -50 -23 -50 -54 0
-32 8 -40 601 -652 217 -224 333 -352 348 -383 20 -38 23 -57 18 -106 -13
-145 -147 -218 -282 -154 -50 24 -59 32 -395 381 -279 290 -810 835 -943 967
-163 162 -205 187 -330 198 -93 8 -687 5 -715 -4 -27 -9 -44 -50 -32 -80 21
-55 27 -56 381 -56 298 0 327 -1 341 -17 25 -30 29 -53 13 -84 -18 -35 4 -32
-313 -33 -239 -1 -254 -2 -268 -20 -23 -32 -17 -79 12 -107 l26 -24 423 -3
424 -3 21 -26 c25 -33 26 -67 0 -93 -19 -19 -33 -20 -353 -20 -372 0 -377 -1
-377 -64 0 -84 64 -95 557 -96 l382 0 27 -23 c31 -27 35 -68 8 -98 -17 -19
-30 -20 -365 -18 -191 1 -352 -2 -358 -5 -6 -4 -11 -14 -11 -22 0 -21 85 -109
123 -128 18 -8 120 -102 227 -208 419 -416 946 -850 1361 -1120 442 -288 467
-297 622 -220 69 34 462 288 577 373 19 14 80 59 135 99 388 286 793 647 1121
1000 28 30 77 73 110 96 67 46 94 86 77 112 -9 15 -44 18 -330 22 -251 4 -324
8 -336 19 -21 17 -22 70 -3 97 14 18 34 19 413 25 253 3 408 10 424 17 15 6
36 23 48 38 24 31 21 59 -11 87 -18 15 -48 17 -304 17 -271 0 -285 1 -304 20
-25 25 -27 82 -3 101 13 11 93 15 388 19 355 5 374 6 395 25 53 48 41 117 -22
128 -18 3 -165 4 -326 3 -278 -4 -293 -3 -317 16 -29 23 -34 68 -9 92 8 9 16
17 17 18 1 1 181 5 400 8 l399 5 19 24 c24 29 24 62 0 92 l-18 23 -359 0
c-198 -1 -430 -4 -516 -8 -150 -7 -157 -7 -177 13 -26 26 -27 52 -3 80 17 21
21 21 589 23 l571 3 26 24 c32 30 34 73 5 100 -21 20 -39 20 -668 23 -604 3
-649 4 -674 21 -55 36 -57 101 -6 138 28 20 40 20 715 20 578 0 690 2 714 14
46 24 50 92 7 114 -16 7 -281 12 -892 14 -652 2 -877 5 -898 14 -15 7 -35 28
-44 47 -14 30 -14 39 -3 66 17 40 44 57 100 64 25 2 433 5 906 5 806 1 863 2
882 19 33 27 37 65 10 95 l-23 26 -1135 3 c-1101 3 -1136 4 -1167 23 -62 37
-66 117 -7 144 18 8 334 11 1145 11 l1120 0 24 25 c31 31 32 59 1 90 l-24 24
-1303 4 c-717 3 -1324 7 -1349 10 -25 4 -52 4 -60 0z"/>
<path d="M2267 7149 c-42 -24 -40 -83 2 -116 12 -10 286 -12 1207 -13 1184 0
1190 0 1212 20 31 29 29 73 -4 99 -27 21 -28 21 -1213 21 -810 -1 -1192 -4
-1204 -11z"/>
<path d="M2230 6820 c-27 -27 -26 -71 3 -98 l23 -22 886 0 887 0 20 26 c27 35
26 59 -4 89 l-24 25 -886 0 c-872 0 -885 0 -905 -20z"/>
<path d="M2266 6478 c-23 -32 -20 -65 8 -93 l24 -24 651 3 c613 2 652 4 671
21 26 24 26 69 -2 95 -21 20 -31 20 -679 20 l-658 0 -15 -22z"/>
<path d="M2361 6154 c-29 -36 -26 -60 8 -95 l30 -29 679 2 c653 3 681 4 701
22 29 26 27 71 -4 101 l-24 25 -685 0 -685 0 -20 -26z"/>
<path d="M2091 2771 c-20 -20 -21 -30 -22 -268 -1 -397 -1 -396 21 -414 17
-14 47 -16 226 -14 189 3 209 4 221 21 25 34 27 64 6 92 -20 27 -22 27 -169
32 l-149 5 -5 262 c-6 291 -5 289 -72 299 -28 5 -40 2 -57 -15z"/>
<path d="M2661 2772 c-20 -16 -21 -29 -23 -341 l-2 -324 23 -18 c20 -17 39
-18 234 -13 117 2 219 7 228 9 16 5 39 45 39 69 0 7 -9 25 -21 40 l-20 26
-165 0 -164 0 0 65 0 65 58 2 c31 0 93 0 137 -1 69 -3 84 0 108 19 32 25 36
67 10 99 -17 20 -28 21 -165 22 l-148 1 0 74 0 74 159 0 c137 0 162 2 179 18
38 31 30 101 -13 120 -17 8 -94 12 -230 12 -177 -1 -207 -3 -224 -18z"/>
<path d="M3290 2770 c-18 -18 -20 -35 -22 -157 -3 -225 0 -486 6 -509 7 -25
57 -47 84 -37 50 18 52 25 52 213 0 97 3 180 6 183 4 4 38 -40 77 -96 92 -134
185 -258 209 -279 27 -24 83 -23 108 2 19 19 20 33 20 338 0 174 -4 322 -8
328 -10 16 -48 34 -70 34 -11 0 -30 -8 -42 -18 -24 -20 -22 3 -28 -312 l-2
-95 -135 202 c-74 111 -143 207 -154 213 -31 16 -79 12 -101 -10z"/>
<path d="M5123 2780 c-27 -11 -47 -48 -84 -155 -15 -44 -61 -170 -103 -280
-42 -110 -76 -209 -76 -221 0 -42 63 -73 110 -54 20 8 35 28 54 70 14 31 26
62 26 67 0 14 60 23 163 23 l87 0 36 -75 c30 -64 40 -76 67 -83 41 -11 86 4
99 33 12 27 7 45 -70 245 -33 85 -79 208 -102 273 -54 150 -62 159 -131 163
-30 2 -64 0 -76 -6z m104 -311 c18 -46 32 -90 33 -96 0 -9 -17 -13 -52 -13
-60 0 -98 8 -98 21 0 26 64 179 74 176 6 -2 25 -41 43 -88z"/>
<path d="M5860 2770 c-19 -19 -20 -33 -20 -344 l0 -325 27 -21 c31 -24 66 -20
97 10 17 17 19 32 17 139 l-2 121 135 0 136 0 0 -120 c0 -107 2 -122 20 -140
24 -24 77 -27 106 -6 18 14 19 32 24 318 6 350 3 368 -53 382 -31 8 -42 6 -65
-11 -27 -20 -27 -22 -30 -147 l-3 -126 -128 0 -129 0 -4 126 c-3 118 -4 127
-27 145 -30 25 -76 24 -101 -1z"/>
<path d="M6738 2784 c-21 -7 -44 -55 -108 -229 -29 -77 -70 -187 -92 -245 -54
-141 -62 -172 -55 -202 10 -38 55 -53 99 -35 29 12 40 26 62 80 16 36 36 67
45 70 28 7 168 8 204 2 32 -6 37 -12 57 -65 12 -32 31 -67 41 -76 26 -24 83
-23 109 1 31 28 25 57 -52 265 -36 96 -82 224 -103 283 -49 141 -57 150 -131
153 -32 2 -67 0 -76 -2z m109 -320 c17 -49 32 -92 32 -96 1 -5 -33 -8 -75 -8
l-76 0 6 33 c11 58 58 168 69 164 6 -2 26 -44 44 -93z"/>
<path d="M7220 2770 c-19 -19 -20 -33 -20 -343 0 -349 -1 -341 52 -360 24 -9
76 11 88 33 6 10 10 98 10 194 0 97 4 176 8 176 5 0 14 -10 19 -22 18 -39 232
-342 254 -360 27 -23 81 -23 109 0 22 18 22 20 22 340 0 236 -3 326 -12 337
-7 8 -28 17 -47 21 -27 5 -39 2 -59 -17 -24 -22 -24 -25 -24 -188 0 -91 -3
-176 -6 -189 -6 -19 -17 -6 -78 90 -119 189 -189 286 -214 297 -36 17 -80 13
-102 -9z"/>
<path d="M7923 2780 c-12 -5 -26 -18 -32 -29 -15 -28 -15 -612 0 -645 14 -31
38 -35 174 -30 152 6 204 18 274 65 108 72 157 179 149 323 -8 146 -80 246
-216 299 -48 19 -311 32 -349 17z m294 -161 c69 -26 113 -99 113 -186 -1 -139
-85 -212 -247 -213 l-53 0 0 205 0 205 79 0 c44 0 92 -5 108 -11z"/>
<path d="M3969 2764 c-11 -14 -15 -76 -17 -328 -4 -293 -3 -313 15 -335 23
-28 66 -32 234 -21 93 6 123 12 164 33 70 35 132 98 163 165 23 49 27 70 27
152 0 82 -4 103 -26 151 -36 76 -88 131 -157 165 -55 28 -64 29 -223 32 -147
3 -167 2 -180 -14z m336 -158 c152 -81 125 -328 -40 -371 -28 -7 -75 -12 -105
-11 l-55 1 -3 202 -2 202 47 3 c71 5 113 -2 158 -26z"/>
<path d="M3555 1779 c-103 -29 -135 -160 -61 -245 33 -38 35 -39 105 -39 68 0
72 1 107 37 30 30 38 45 42 87 6 68 -29 131 -88 155 -44 18 -60 18 -105 5z
m97 -73 c24 -18 39 -63 32 -92 -8 -31 -50 -64 -81 -64 -36 0 -83 51 -83 90 0
62 83 104 132 66z"/>
<path d="M4267 1776 c-18 -18 -107 -241 -107 -267 0 -32 47 -25 65 11 14 28
20 30 70 30 50 0 56 -2 70 -30 17 -33 52 -41 62 -14 3 8 -1 32 -10 52 -89 215
-98 232 -123 232 -7 0 -19 -6 -27 -14z m43 -112 c18 -47 13 -64 -20 -64 -34 0
-34 1 -19 53 12 43 26 47 39 11z"/>
<path d="M4993 1771 c-110 -51 -113 -214 -6 -265 76 -36 171 -5 204 67 23 52
23 71 0 123 -36 79 -120 111 -198 75z m117 -71 c57 -57 19 -150 -61 -150 -31
0 -79 53 -79 88 0 68 93 109 140 62z"/>
<path d="M5793 1779 c-58 -17 -82 -83 -45 -129 9 -11 42 -29 72 -39 60 -20 75
-43 40 -61 -18 -9 -31 -8 -66 5 -36 13 -48 14 -59 5 -24 -20 -18 -36 19 -54
76 -36 177 -8 191 53 13 59 -26 99 -112 116 -23 5 -33 12 -33 25 0 25 25 32
72 20 29 -8 43 -8 54 1 23 19 16 34 -21 52 -39 19 -64 20 -112 6z"/>
<path d="M6358 1774 c-27 -11 -40 -25 -48 -49 -20 -61 19 -103 113 -120 27 -5
37 -12 37 -26 0 -31 -33 -41 -81 -24 -38 14 -44 14 -61 -1 -25 -23 -23 -29 16
-48 65 -31 161 -14 186 33 29 55 -2 105 -79 127 -69 20 -77 27 -55 48 12 13
24 15 43 10 50 -14 73 -10 82 14 7 19 4 24 -19 33 -46 19 -95 20 -134 3z"/>
<path d="M7210 1782 c-27 -9 -30 -25 -30 -159 l0 -133 30 0 30 0 0 80 c0 44 4
80 9 80 4 0 22 -22 39 -50 17 -27 36 -50 41 -50 5 0 28 26 50 57 l41 58 0 -56
c0 -91 9 -119 36 -119 32 0 35 20 32 164 -3 114 -4 119 -26 127 -27 10 -47 -7
-98 -85 l-32 -47 -37 60 c-38 64 -60 82 -85 73z"/>
<path d="M3134 1767 c-2 -7 -3 -71 -2 -143 l3 -129 70 -3 c83 -3 128 16 162
67 47 70 20 177 -52 207 -44 18 -174 19 -181 1z m150 -58 c79 -36 40 -159 -50
-159 l-34 0 0 85 0 85 30 0 c16 0 40 -5 54 -11z"/>
<path d="M3834 1767 c-2 -7 -3 -71 -2 -143 l3 -129 25 0 c24 0 25 3 30 80 l5
79 68 -83 c53 -63 74 -81 90 -79 21 3 22 8 25 146 l3 143 -28 -3 c-28 -3 -28
-3 -31 -86 l-3 -84 -66 86 c-50 66 -72 86 -90 86 -13 0 -26 -6 -29 -13z"/>
<path d="M4450 1755 c0 -26 23 -37 65 -32 19 2 20 -5 25 -113 l5 -115 27 -3
27 -3 3 118 3 118 31 -2 c35 -3 60 18 50 42 -4 12 -27 15 -121 15 l-115 0 0
-25z"/>
<path d="M4762 1638 l3 -143 25 0 25 0 3 143 3 142 -31 0 -31 0 3 -142z"/>
<path d="M5287 1773 c-4 -3 -7 -69 -7 -145 l0 -138 30 0 30 0 0 80 c0 44 3 80
8 80 4 0 34 -36 67 -80 50 -67 64 -80 85 -78 l25 3 3 143 3 142 -26 0 c-29 0
-34 -14 -37 -108 l-3 -63 -63 85 c-47 64 -70 86 -86 86 -13 0 -26 -3 -29 -7z"/>
<path d="M5990 1769 c0 -6 23 -43 50 -82 44 -62 50 -77 50 -121 0 -62 10 -79
41 -74 22 3 24 9 29 68 4 56 11 74 48 127 61 89 62 95 21 91 -28 -2 -39 -11
-64 -50 -16 -26 -33 -47 -36 -47 -4 -1 -21 22 -39 49 -28 44 -36 50 -66 50
-19 0 -34 -5 -34 -11z"/>
<path d="M6572 1753 c3 -25 7 -28 45 -31 l42 -3 3 -112 3 -112 27 -3 c35 -4
41 16 36 136 l-3 91 45 3 c41 3 45 6 48 31 l3 27 -126 0 -126 0 3 -27z"/>
<path d="M6884 1767 c-2 -7 -3 -71 -2 -143 l3 -129 105 0 105 0 0 25 c0 24 -2
25 -77 28 l-78 3 0 29 0 30 70 0 c68 0 70 1 70 25 0 24 -2 25 -65 25 l-65 0 0
35 0 35 69 0 c72 0 86 6 75 34 -5 13 -24 16 -105 16 -73 0 -101 -4 -105 -13z"/>
</g>
</svg>
